<svg width="160" height="58" viewBox="0 0 160 58" fill="none" xmlns="http://www.w3.org/2000/svg">
<g clip-path="url(#clip0_1041_24921)">
<mask id="mask0_1041_24921" style="mask-type:luminance" maskUnits="userSpaceOnUse" x="0" y="0" width="23" height="29">
<path d="M0.585938 0.0910645H22.691V28.281H0.585938V0.0910645Z" fill="white"/>
</mask>
<g mask="url(#mask0_1041_24921)">
<path fill-rule="evenodd" clip-rule="evenodd" d="M22.5559 20.8511L22.4653 16.4412C14.2531 17.3679 9.67899 15.9458 8.74304 12.175C8.19958 7.47752 10.2677 3.45107 14.9475 0.0957031C-6.20198 1.00645 -4.02816 29.9106 21.8765 27.8973C20.85 26.0759 21.0764 23.7271 22.5559 20.8511Z" fill="#F58A1E"/>
</g>
<mask id="mask1_1041_24921" style="mask-type:luminance" maskUnits="userSpaceOnUse" x="21" y="13" width="18" height="45">
<path d="M21.332 13.4214H38.0886V57.9711H21.332V13.4214Z" fill="white"/>
</mask>
<g mask="url(#mask1_1041_24921)">
<path fill-rule="evenodd" clip-rule="evenodd" d="M26.8127 29.3354C32.8209 31.1889 34.7079 34.9756 32.4737 40.6958C32.5945 39.6732 32.6247 38.7305 32.5643 37.8677C31.9605 38.0913 31.3264 38.2032 30.6622 38.2032C27.4468 38.2032 24.8654 35.423 24.8654 32.0197C24.8654 31.4445 24.9257 30.9013 25.0465 30.39C24.171 30.0385 23.3105 29.5112 22.4651 28.8081C20.7744 34.3046 21.4235 38.3949 24.4125 41.0792C25.9221 42.3575 26.8429 44.2748 27.175 46.8313C28.0355 45.0098 29.53 43.9553 30.4811 43.4759C26.1032 49.0043 25.3937 52.4555 28.3525 53.8296C28.8356 56.7376 30.7226 58.1117 34.0135 57.952C33.9229 57.6004 33.7267 57.153 33.4248 56.6098C31.4623 56.8974 30.2395 55.9867 29.7565 53.8776C32.0812 53.9734 33.9682 55.2517 35.4174 57.7123H37.8177V14.3321C31.9605 12.7024 27.2656 13.3734 23.7332 16.3453L23.9143 20.3239C25.0918 19.461 26.8882 19.0137 29.3036 18.9817C24.9257 20.2599 22.7066 22.385 22.6463 25.3569C22.8274 27.7536 24.2162 29.0798 26.8127 29.3354Z" fill="#F58A1E"/>
</g>
<path fill-rule="evenodd" clip-rule="evenodd" d="M43.6602 31.8281H44.9282V21.6661H43.6602V18.6462H51.812C55.4803 18.6462 57.2012 20.0843 57.2012 22.6248C57.2012 24.59 56.7031 25.5008 55.0274 26.2198C56.6125 26.6991 57.9259 27.8975 57.9259 30.1504C57.9259 33.4099 56.2049 34.8479 51.9931 34.8479H43.6602V31.8281ZM49.457 25.1652H50.8156C51.9478 25.1652 52.3102 24.4942 52.3102 23.3917C52.3102 22.3371 51.6761 21.714 50.8609 21.714H49.457V25.1652ZM51.2232 31.8281C52.129 31.8281 52.9895 31.0611 52.9895 29.8148C52.9895 28.6165 52.3554 27.7537 51.1327 27.7537H49.457V31.8281H51.2232Z" fill="#111111"/>
<path d="M65.6239 34.8479V31.8281H64.3558V17.4958H59.2836V20.4678H60.1893V31.8281H59.2383V34.8479H65.6239Z" fill="#111111"/>
<path fill-rule="evenodd" clip-rule="evenodd" d="M67.3005 24.2545C68.161 23.6793 70.0631 22.6248 72.0558 22.6248C74.6825 22.6248 77.9885 23.6314 77.9885 27.3702V31.876H79.3018V34.8479H74.6372L74.0937 33.7934C73.2785 34.9917 71.9199 35.2793 71.15 35.2793C69.0668 35.2793 66.8477 34.081 66.8477 31.3967C66.8477 28.8082 68.9309 27.1785 71.3764 27.1785C72.6898 27.1785 73.4144 27.8495 73.5503 27.9934V27.1785C73.5503 26.1239 72.6445 25.8843 71.467 25.8843C70.199 25.8843 69.0215 26.4595 68.2063 26.9388L67.3005 24.2545ZM73.5503 30.6297C73.505 30.5338 73.188 29.9586 72.2822 29.9586C71.3764 29.9586 71.0141 30.4859 71.0141 31.2049C71.0141 31.8281 71.5123 32.2595 72.1463 32.2595C72.8257 32.2595 73.3691 31.876 73.5503 31.4925V30.6297Z" fill="#111111"/>
<path d="M91.2573 28.5206V23.2958H88.6759L88.3136 24.3983C87.9513 23.919 87.0455 23.0562 85.551 23.0562C82.7884 23.0562 80.207 24.8776 80.207 29C80.207 33.1223 82.9696 35.1834 86.185 35.1834C88.5853 35.1834 90.5327 33.9851 91.5743 32.7867L89.6269 30.438C88.9023 31.3008 88.1324 31.7801 87.0002 31.7801C85.5963 31.7322 84.7358 30.5338 84.7358 29.0479C84.7358 27.514 85.3699 26.076 86.6832 26.076C87.6795 26.076 87.9966 27.3702 88.0418 28.5206H91.2573Z" fill="#111111"/>
<path d="M93.1582 34.8479H99.0003V31.8281H98.1852V29.8628L98.9551 29.3355L100.631 31.8281H99.6797V34.8479H106.156V31.8281H105.069L102.125 27.3223L103.62 26.3636H105.295V23.2959H99.1815V26.3636H100.721L98.1852 27.9454V17.4958H93.1582V20.5157H94.064V31.8281H93.1582V34.8479Z" fill="#111111"/>
<path fill-rule="evenodd" clip-rule="evenodd" d="M113.721 31.8281H114.989V21.6661H113.721V18.6462H121.873C125.541 18.6462 127.262 20.0843 127.262 22.6248C127.262 24.59 126.764 25.5008 125.088 26.2198C126.673 26.6991 127.986 27.8975 127.986 30.1504C127.986 33.4099 126.265 34.8479 122.054 34.8479H113.721V31.8281ZM119.518 25.1652H120.876C122.008 25.1652 122.371 24.4942 122.371 23.3917C122.371 22.3371 121.737 21.714 120.921 21.714H119.518V25.1652ZM121.284 31.8281C122.19 31.8281 123.05 31.0611 123.05 29.8148C123.05 28.6165 122.416 27.7537 121.193 27.7537H119.518V31.8281H121.284Z" fill="#F58A1E"/>
<path d="M129.072 23.2959V26.3157H130.023V29.5273C130.023 33.362 131.11 35.1835 134.416 35.1835C136.273 35.1835 137.043 33.9852 137.496 33.4099L138.085 34.848H142.206V31.7802H141.164V23.2959H135.503V26.3157H136.952V30.0066C136.952 31.0612 136.318 31.7802 135.548 31.7802C134.643 31.7802 134.371 30.8215 134.371 28.8562V23.2959H129.072Z" fill="#F58A1E"/>
<path d="M150.04 34.8479V31.8281H148.727V17.4958H143.654V20.4678H144.605V31.8281H143.654V34.8479H150.04Z" fill="#F58A1E"/>
<path d="M157.831 34.8479V31.8281H156.563V17.4958H151.491V20.4678H152.396V31.8281H151.445V34.8479H157.831Z" fill="#F58A1E"/>
<path d="M43.0254 42.8049H49.1845V44.5306H47.0107V51.7686H45.1992V44.5306H43.0254V42.8049Z" fill="#111111"/>
<path fill-rule="evenodd" clip-rule="evenodd" d="M56.9748 45.4892C56.9748 45.7449 56.9446 46.0165 56.8843 46.3041C56.7937 46.5598 56.688 46.7834 56.5672 46.9752C56.4163 47.1989 56.2502 47.3906 56.0691 47.5504C55.8879 47.7102 55.6766 47.838 55.435 47.9339L58.2429 51.7686H56.1596L53.5329 48.1256H52.7178V51.7686H50.9062V42.8049H54.5746C54.8765 42.8049 55.1784 42.8688 55.4803 42.9967C55.7822 43.1564 56.054 43.3482 56.2955 43.5719C56.5069 43.8275 56.6729 44.1151 56.7937 44.4347C56.9144 44.7542 56.9748 45.1058 56.9748 45.4892ZM54.3028 46.4C54.5444 46.4 54.7557 46.3041 54.9369 46.1124C55.0878 45.9526 55.1633 45.7449 55.1633 45.4892C55.1633 45.2336 55.0878 45.0099 54.9369 44.8182C54.7557 44.6264 54.5444 44.5306 54.3028 44.5306H52.7178V46.4H54.3028Z" fill="#111111"/>
<path fill-rule="evenodd" clip-rule="evenodd" d="M65.2165 42.8049L68.749 51.7686H66.7563L66.0317 49.8512H62.4087L61.6841 51.7686H59.6914L63.2239 42.8049H65.2165ZM65.3524 48.0777L64.2202 45.2975L63.1333 48.0777H65.3524Z" fill="#111111"/>
<path d="M76.2223 42.8049H78.0338V51.7686H76.3128L72.2369 45.9206V51.7686H70.4707V42.8049H72.1464L76.2223 48.7008V42.8049Z" fill="#111111"/>
<path d="M85.4603 47.1669C85.7924 47.3587 86.034 47.6143 86.1849 47.9339C86.3661 48.2854 86.4566 48.6688 86.4566 49.0843C86.4566 49.4997 86.3661 49.8832 86.1849 50.2347C86.0038 50.5862 85.7471 50.8898 85.415 51.1454C85.1131 51.4011 84.7659 51.5928 84.3734 51.7206C83.9809 51.8485 83.5733 51.9124 83.1506 51.9124C82.7279 51.9124 82.3203 51.8485 81.9279 51.7206C81.5354 51.5928 81.1881 51.4011 80.8862 51.1454C80.4333 50.7939 80.1314 50.3625 79.9805 49.8512L81.6561 49.0363C81.6561 49.1003 81.6712 49.1961 81.7014 49.3239C81.7618 49.4518 81.8524 49.5796 81.9731 49.7074C82.0939 49.8352 82.2449 49.9311 82.426 49.995C82.6374 50.0909 82.8789 50.1388 83.1506 50.1388C83.362 50.1388 83.5582 50.1069 83.7394 50.043C83.9205 49.979 84.0564 49.9151 84.147 49.8512C84.2677 49.7553 84.3583 49.6435 84.4187 49.5157C84.4791 49.4198 84.5093 49.308 84.5093 49.1801C84.5093 49.0523 84.464 48.9245 84.3734 48.7967C84.313 48.6688 84.1922 48.573 84.0111 48.5091C83.679 48.4132 83.3469 48.3173 83.0148 48.2215C82.6525 48.1576 82.3052 48.0617 81.9731 47.9339C81.641 47.806 81.324 47.6463 81.0221 47.4545C80.7504 47.2308 80.5239 46.9432 80.3428 46.5917C80.1918 46.2722 80.1163 45.9366 80.1163 45.5851C80.1163 45.1697 80.2069 44.7702 80.3881 44.3868C80.5692 44.0033 80.8107 43.6837 81.1127 43.4281C81.4146 43.1724 81.7467 42.9807 82.109 42.8529C82.4713 42.725 82.8638 42.6611 83.2865 42.6611C83.679 42.6611 84.0715 42.725 84.464 42.8529C84.8263 42.9807 85.1584 43.1724 85.4603 43.4281C85.732 43.6518 85.9585 43.9074 86.1396 44.195L84.781 45.2016C84.5998 44.946 84.3885 44.7542 84.147 44.6264C83.8752 44.4666 83.5884 44.3868 83.2865 44.3868C82.8638 44.3868 82.5317 44.4826 82.2902 44.6744C82.0486 44.898 81.9279 45.1697 81.9279 45.4892C81.9279 45.649 82.0033 45.7928 82.1543 45.9206C82.2751 46.0165 82.4411 46.1124 82.6525 46.2082C82.8638 46.3041 83.1053 46.384 83.3771 46.4479C83.6186 46.5438 83.8752 46.6237 84.147 46.6876C84.4187 46.7515 84.6602 46.8154 84.8716 46.8793C85.1131 46.9752 85.3094 47.0711 85.4603 47.1669Z" fill="#111111"/>
</g>
<defs>
<clipPath id="clip0_1041_24921">
<rect width="159" height="58" fill="white" transform="translate(0.5)"/>
</clipPath>
</defs>
</svg>
