<svg width="24" height="24" viewBox="0 0 24 24" fill="none" xmlns="http://www.w3.org/2000/svg">
<path opacity="0.4" d="M18 3H6C3.79 3 2 4.78 2 6.97V17.03C2 19.22 3.79 21 6 21H18C20.21 21 22 19.22 22 17.03V6.97C22 4.78 20.21 3 18 3Z" fill="#032272"/>
<path d="M19 8.25H14C13.8661 8.25 13.75 8.13386 13.75 8C13.75 7.86614 13.8661 7.75 14 7.75H19C19.1339 7.75 19.25 7.86614 19.25 8C19.25 8.13386 19.1339 8.25 19 8.25Z" fill="#032272" stroke="#032272"/>
<path d="M19 12.75H15C14.59 12.75 14.25 12.41 14.25 12C14.25 11.59 14.59 11.25 15 11.25H19C19.41 11.25 19.75 11.59 19.75 12C19.75 12.41 19.41 12.75 19 12.75Z" fill="#032272"/>
<path d="M19 16.75H17C16.59 16.75 16.25 16.41 16.25 16C16.25 15.59 16.59 15.25 17 15.25H19C19.41 15.25 19.75 15.59 19.75 16C19.75 16.41 19.41 16.75 19 16.75Z" fill="#032272"/>
<path d="M8.49945 11.7899C9.77523 11.7899 10.8095 10.7557 10.8095 9.47992C10.8095 8.20414 9.77523 7.16992 8.49945 7.16992C7.22368 7.16992 6.18945 8.20414 6.18945 9.47992C6.18945 10.7557 7.22368 11.7899 8.49945 11.7899Z" fill="#032272"/>
<path d="M9.29954 13.11C8.76954 13.06 8.21954 13.06 7.68954 13.11C6.00954 13.27 4.65954 14.6 4.49954 16.28C4.48954 16.42 4.52954 16.56 4.62954 16.66C4.72954 16.76 4.85954 16.83 4.99954 16.83H11.9995C12.1395 16.83 12.2795 16.77 12.3695 16.67C12.4595 16.57 12.5095 16.43 12.4995 16.29C12.3295 14.6 10.9895 13.27 9.29954 13.11Z" fill="#032272"/>
</svg>
